<?xml version="1.0" encoding="UTF-8" standalone="no"?>
<!-- Created with Inkscape (http://www.inkscape.org/) -->

<svg
   xmlns:dc="http://purl.org/dc/elements/1.1/"
   xmlns:cc="http://creativecommons.org/ns#"
   xmlns:rdf="http://www.w3.org/1999/02/22-rdf-syntax-ns#"
   xmlns:svg="http://www.w3.org/2000/svg"
   xmlns="http://www.w3.org/2000/svg"
   xmlns:sodipodi="http://sodipodi.sourceforge.net/DTD/sodipodi-0.dtd"
   xmlns:inkscape="http://www.inkscape.org/namespaces/inkscape"
   width="1280"
   height="768"
   id="svg66174"
   version="1.1"
   inkscape:version="0.48.2 r9819"
   sodipodi:docname="kiribati_story.svg">
  <defs
     id="defs66176" />
  <sodipodi:namedview
     id="base"
     pagecolor="#cfcfcf"
     bordercolor="#000000"
     borderopacity="0.37254902"
     inkscape:pageopacity="1"
     inkscape:pageshadow="2"
     inkscape:zoom="0.5"
     inkscape:cx="573.76094"
     inkscape:cy="372.30976"
     inkscape:document-units="px"
     inkscape:current-layer="layer1"
     showgrid="true"
     inkscape:showpageshadow="false"
     borderlayer="true"
     fit-margin-top="0"
     fit-margin-left="0"
     fit-margin-right="0"
     fit-margin-bottom="0"
     guidecolor="#73caf8"
     guideopacity="0.49803922"
     guidehicolor="#ff5083"
     guidehiopacity="0.49803922"
     inkscape:window-width="1276"
     inkscape:window-height="756"
     inkscape:window-x="4"
     inkscape:window-y="0"
     inkscape:window-maximized="1"
     inkscape:snap-global="false">
    <inkscape:grid
       type="xygrid"
       id="grid66182"
       empspacing="3"
       visible="true"
       enabled="true"
       snapvisiblegridlinesonly="true"
       spacingx="426.6666px"
       spacingy="256px"
       color="#ffffff"
       opacity="0.15686275"
       empcolor="#000000"
       empopacity="0.11764706"
       dotted="false" />
  </sodipodi:namedview>
  <metadata
     id="metadata66179">
    <rdf:RDF>
      <cc:Work
         rdf:about="">
        <dc:format>image/svg+xml</dc:format>
        <dc:type
           rdf:resource="http://purl.org/dc/dcmitype/StillImage" />
        <dc:title></dc:title>
      </cc:Work>
    </rdf:RDF>
  </metadata>
  <g
     inkscape:label="Capa 1"
     inkscape:groupmode="layer"
     id="layer1"
     transform="translate(0,-284.36218)" />
  <g
     inkscape:groupmode="layer"
     id="layer2"
     inkscape:label="shapes"
     sodipodi:insensitive="true"
     style="display:none">
    <path
       inkscape:connector-curvature="0"
       id="path4993"
       d="m 721.75327,251.2898 c -2.26041,0.4585 -2.66884,1.8404 -3.94909,2.9753 -1.77309,1.574 -2.31007,1.8918 -3.57056,4.0574 -1.4854,2.5523 -1.03257,2.8275 -1.46055,4.3281 -1.41181,4.9497 -1.11491,4.1669 -1.83955,8.9802 l -0.64898,2.8673 c -0.45673,-0.2092 -0.9537,-0.433 -1.46079,-0.4871 -1.78758,-0.1908 -2.03228,1.7076 -2.00168,3.0297 0.0621,2.4805 1.83655,4.6473 2.11,5.4099 0.20237,0.5613 0.26859,2.0159 0.27044,2.6509 0,4.3925 -1.05695,8.8052 -2.38044,12.9836 l -1.02776,2.8672 -1.35247,4.3279 c -0.16327,0.5809 -0.3254,1.7158 -0.59516,2.1098 -0.33622,0.4946 -1.33223,1.2397 -1.83932,1.6231 -0.98727,0.7463 -1.82069,1.5578 -2.92134,2.1638 -1.43319,0.7881 -2.77117,1.0788 -3.1918,1.2985 l -1.29842,0.8656 c -2.47612,1.6063 -5.08976,3.0128 -7.35752,4.923 l -2.00145,2.1098 -1.73123,1.4605 -2.54258,2.7052 -7.57392,8.6014 c -1.35936,1.353 -3.41624,3.0648 -5.0311,4.1118 -0.90264,0.5844 -2.1353,1.0367 -2.86731,1.677 -0.64184,0.5613 -1.16158,1.3039 -1.29842,2.1638 -0.15178,0.9445 0.33161,1.0967 -0.37853,1.9476 -0.78767,0.9408 -2.89168,2.4853 -3.89529,3.3001 -1.81057,1.4696 -3.13061,2.8018 -4.54426,4.6526 -2.57684,3.3762 -4.26644,8.8558 -4.2738,13.0917 0.0229,2.6603 0.35807,1.2299 0,4.7066 -0.12648,1.0434 -0.32725,2.0476 -0.70326,3.0294 -0.26975,0.7016 -0.8456,1.6177 -0.81134,2.3263 0.0229,0.4911 0.78329,2.6646 1.08179,3.0296 0.26078,0.3184 0.98934,0.8048 1.35246,1.082 0.43167,0.3291 1.03488,0.88 1.56888,0.9739 0.43879,0.078 1.11053,-0.1725 1.62315,-0.2162 1.21725,-0.1081 2.42988,1.0294 3.40819,1.677 l 1.56887,0.8655 5.30156,3.0296 c 1.33614,0.6836 1.77218,0.6487 2.86731,1.0819 l 3.24582,1.2982 2.8673,0.5952 2.70495,0.5952 5.73436,0.6492 3.94932,0.2704 c 0.90632,-0.023 0.92266,-0.2092 2.00168,0 1.01418,0.2162 1.86485,0.2788 2.00168,1.4066 -0.26998,-0.032 -0.45903,-0.1111 -0.75752,0 -0.71039,0.1748 -1.4831,1.8841 -1.83932,2.5423 -0.29851,0.5543 -0.68441,1.149 -0.37877,1.7857 0.35967,0.7482 2.2128,1.8246 2.92135,2.3803 0.50179,0.3918 1.04936,0.9778 1.67718,1.136 0.78398,0.1909 1.50656,-0.2426 2.48853,0 1.10963,0.2788 1.28026,0.9427 2.54258,0.8116 l 0.27044,3.0294 c 0.22768,0.5055 0.72718,0.4255 0.91967,1.1363 l 0.37877,6.2752 0.16327,1.8392 0.21619,4.4905 0.16328,2.1639 -0.16328,1.7851 0,2.4887 -0.16099,2.3803 0,2.3262 -0.21618,2.1638 0,3.2459 -0.16098,2.1098 -0.16098,3.6249 -0.5409,6.4917 0,5.7346 0.3245,5.9508 0.59517,8.0605 0.86539,4.8693 c 0.0252,2.2645 0.0552,2.1301 -0.43258,4.3277 -0.22538,1.0128 -0.71383,2.7907 -0.59517,3.7869 l 0.48686,1.6229 0,1.2441 c 0.13339,0.986 0.39945,2.8591 0.64921,3.7873 0.56481,2.108 1.48953,4.2235 1.51482,6.4378 0.0276,2.3867 -0.36979,2.3739 -1.67719,4.1652 l -1.35247,1.9476 c -0.66531,0.8382 -1.8821,1.6512 -1.67695,2.9214 0.16787,1.0288 0.90355,1.4801 1.62291,2.1097 l 1.46056,1.3528 c 0.66554,0.4677 0.92357,0.2786 2.32639,1.3524 -1.54656,-0.356 -1.90048,0.5485 -3.08369,1.3525 -0.60966,0.4137 -1.01579,0.4166 -1.19011,1.1901 l -2.27214,0.9737 -0.8656,0.5952 -3.19179,0.9737 -2.16405,1.2443 c -0.55193,-0.046 -0.5363,-0.1312 -0.86562,0.3245 -1.10594,-0.1908 -1.10111,0.1656 -2.16381,0.3788 l -1.78528,0.2705 -3.24583,1.19 c -0.66186,0.2556 -1.95752,0.4919 -2.27237,1.1362 -0.39922,0.8168 -0.38152,2.7323 0.053,3.5165 l 1.13606,1.4605 4.11168,0.2707 1.78527,-0.1082 24.29017,0 6.87067,0 3.40819,0 -0.27067,-1.4609 c -0.0229,-0.7372 0.34933,-2.7443 0.75753,-3.3539 0.56619,-0.8511 1.22345,-0.606 1.51482,-1.2984 0.29116,-0.6906 -0.36197,-2.2059 -0.16097,-3.0295 0.15408,-0.6331 0.73499,-1.1034 1.08179,-1.6771 0.65106,-1.0774 1.01189,-2.3168 1.02798,-3.5706 0.0229,-1.2643 0.0414,-1.8173 -0.4328,-3.0294 -0.30036,-0.7662 -0.82447,-1.333 -0.97372,-2.1641 l -0.10801,-2.9214 -0.27069,-4.1114 0,-3.0835 -0.16097,-1.569 0.16097,-2.0017 0,-5.572 0.16329,-3.9493 0,-8.6558 -0.16329,-3.0295 0,-5.9507 -0.21616,-3.0836 0,-5.0314 0.16097,-2.1641 0,-1.9473 0.21618,-2.7048 c 0,-0.869 -0.0804,-1.3076 0.16097,-2.1639 l 2.59687,9.7374 1.02775,5.3559 1.46078,5.9509 1.40651,5.7344 1.35247,2.7049 2.32618,5.9511 0.48707,2.0017 2.00146,7.1949 1.29842,4.4904 0.81157,4.6521 c 0.32174,1.4194 2.14265,2.9674 2.27213,3.9494 0.11725,0.8993 -0.61932,2.3519 -0.86561,3.246 l -0.54089,4.49 c -0.0461,2.155 0.56251,2.1227 1.83931,2.8132 l 0.86562,0.5412 c 0.56457,0.3091 1.33522,0.3586 1.62291,1.0277 0.18169,0.4281 -0.14263,1.585 -0.21617,2.1097 l -0.59516,4.4903 0,0.7575 0,1.0819 c -0.039,1.0794 0.70969,1.791 1.73123,2.0018 0.70142,0.1428 1.23909,0.1154 1.94763,0.1082 l 2.70471,-0.1634 4.49021,0 3.08371,-0.1633 3.40819,-0.2161 c 1.82347,-0.1908 3.28056,-0.9967 2.70494,-3.0294 l 0.54112,-0.5411 -0.70348,0 c 0.16099,-2.7395 -0.19778,-1.8803 -1.08179,-3.7868 l -0.37876,0.3782 -1.24438,-5.0311 c 0.97094,-0.3018 0.89436,-0.6688 1.46079,-1.4062 0.67243,-0.8741 2.27856,-2.2663 2.00168,-3.4625 -0.31484,-1.3634 -1.96328,-1.9666 -1.73124,-3.7869 0.15868,-1.2246 1.10663,-4.0094 0.86561,-5.0311 -0.28425,-1.2051 -3.13336,-4.6092 -3.51651,-5.9508 -0.28585,-0.9931 0.38705,-1.7418 0.10802,-3.0297 l -1.67696,-4.5442 c -0.85227,-3.5003 -0.55538,-5.4871 -0.59517,-8.9804 -0.0229,-1.3222 -1.01256,-5.6875 -1.35247,-7.195 l -0.64921,-3.9493 -0.8654,-3.9493 -1.89358,-10.9819 -0.64922,-3.9493 -0.32448,-1.2442 -1.13608,-7.9525 c -0.91712,-5.497 -1.72686,-10.9386 -2.10999,-16.5002 l -0.5409,-6.1132 -0.27045,-4.1655 -0.48684,-4.4901 c -0.0622,-0.5109 -0.28816,-1.7053 -0.16329,-2.1641 0.17709,-0.6458 0.61586,-0.5469 0.91967,-1.4605 0.77156,0.2139 0.78628,0.1312 1.46056,0.2162 l 1.24437,0.2707 c 0.61863,0.023 1.59394,-0.5799 2.16381,-0.8658 0.89552,-0.4479 1.44148,-0.5112 1.62315,-1.569 1.70456,0.5669 1.58014,-0.8144 1.78528,-2.0017 0.23205,0.4751 0.40659,0.838 0.75729,1.2444 1.75676,2.0435 3.35117,1.2251 5.51798,0.7573 l -2.59663,-3.7867 -2.48853,-5.7347 -2.97539,-3.2457 1.24416,0.1632 c 0.86147,-0.6908 2.84338,-0.9052 3.94931,-0.9195 l 9.52134,0.3789 5.03109,0.3785 2.16402,0 c 0.9836,-0.1771 0.6212,-0.5372 2.8671,-0.5409 4.1471,-0.023 1.7531,-0.1212 5.0314,-0.6493 2.9164,-0.4696 5.9438,-1.0562 8.6556,-2.2721 l 3.2459,-1.8934 c 1.329,-0.7809 2.6856,-0.5514 4.1116,-1.028 3.3482,-1.1188 3.6605,-3.535 3.6246,-6.5999 -0.023,-1.0882 -0.5561,-3.112 -0.8115,-4.2738 -0.3094,-1.4139 -0.4708,-2.8839 -0.4869,-4.3279 -0.025,-2.1514 -0.6384,-4.2881 -1.2444,-6.3298 -1.3306,-4.4805 -3.3132,-8.6202 -6.1131,-12.3886 l -6.2212,-7.3572 c -0.8955,-1.2734 1.1979,-1.7355 0.1609,-3.4084 -0.4946,-0.7987 -1.791,-1.7186 -2.5425,-2.3804 l -6.2214,-5.3556 c -2.0914,-1.8619 -4.1329,-3.8698 -6.00509,-5.951 l -2.92134,-3.3539 c -1.96719,-1.7538 -4.85725,-3.3342 -7.19493,-4.5986 l -11.84771,-6.3295 c -0.68693,-0.3599 -3.57562,-1.9766 -4.11145,-2.0017 -0.33991,-0.023 -0.75479,0.1725 -1.08203,0.2705 -0.41901,-0.9029 -3.28585,-4.4401 -4.05742,-5.4099 -1.1993,-1.5052 -3.41784,-4.6675 -4.2738,-6.3295 l -0.70325,-1.5687 c -0.89207,-1.8257 -1.90074,-4.447 -1.94765,-6.4919 -0.0461,-2.1298 0.76697,-2.0359 2.86731,-3.5165 2.04284,-1.4389 3.61631,-2.7622 3.19179,-5.4639 -0.0851,-0.5522 -0.31484,-1.0036 -0.70326,-1.4065 -1.31637,-1.3601 -3.52043,-0.5154 -4.97708,0.1632 0.25183,-1.9085 0.53746,-3.8621 0.54113,-5.7886 0.0229,-1.8848 0.45696,-3.5213 -0.54113,-5.3558 -0.419,-0.77 -0.83041,-1.0326 -1.13605,-1.5146 -0.48203,-0.761 -0.56574,-1.5643 -1.67697,-2.5969 -0.87044,-0.8111 -2.33605,-0.912 -2.59684,-2.2178 -1.41526,-0.6584 -3.39762,-3.2861 -5.40988,-4.0577 -1.97272,-0.7573 -2.41701,0.7946 -3.24583,-0.8115 z m 13.84941,10.2788 0.21616,0.1633 0,-0.1633 -0.21616,0 z m 0.37854,0.9197 0.16098,0.1633 0,-0.1633 -0.16098,0 z m 0.37875,19.4214 0.16328,0.1633 0,-0.1633 -0.16328,0 z m -66.00029,53.3954 0.16328,0.1633 0,-0.1633 -0.16328,0 z m 91.15609,24.2904 3.24605,1.6227 c -3.49949,1.6731 -3.74855,1.8491 -6.76233,4.274 -0.71591,0.5735 -1.11814,0.7251 -1.73123,1.4607 l -0.48686,-0.1632 c -0.29851,1.5901 -2.18728,2.0047 -3.46224,2.5428 1.27314,-1.7144 7.67718,-6.6423 9.19661,-9.738 z m -73.95276,4.8687 2.00168,2.3262 2.10976,2.7049 0.43282,2.3262 0.59516,2.8673 0.64922,2.0019 c -1.08639,-0.556 -2.14059,-1.24 -2.75921,-2.3264 l -0.97371,-2.3804 -2.75898,-5.8965 -0.86561,-1.4608 1.56887,-0.1633 z m -35.92151,13.8493 0.16099,0.1634 0,-0.1634 -0.16099,0 z m 4.32787,0.8657 0.16328,0.2162 0,-0.2162 -0.16328,0 z m -2.92134,0.2162 0.21617,0.1632 0,-0.1632 -0.21617,0 z m 36.73306,131.2975 0.16328,0 -0.16328,0.1632 0,-0.1632 z"
       style="fill:#4297a4;fill-opacity:1;stroke:none;display:inline" />
    <path
       inkscape:connector-curvature="0"
       style="fill:#459a61;fill-opacity:1;stroke:none;display:inline"
       d="m 463.07131,318.63757 -1.78125,0.1875 c -1.25791,0.0849 -2.178,-0.19566 -3.28125,0.65625 -1.47253,1.13661 -2.15843,3.7559 -2.375,5.53125 -0.13288,1.06169 0.0252,1.63017 -0.46875,2.65625 -1.49683,3.21109 -1.38806,2.68009 -2.28125,6.1875 -0.13574,0.53044 -0.36595,1.29509 -0.375,1.8125 -0.0339,1.85959 2.24067,5.04043 3.5625,6.25 0.79167,0.72522 1.93688,1.05878 2.34375,2.125 l 0.65625,4.4375 c 0.0594,0.73231 0.24882,1.489 0,2.21875 -0.29828,1.16745 -1.4815,2.32533 -1.65625,4.65625 -0.15267,2.01707 0.89707,3.52591 2.25,4.90625 2.79914,2.84835 7.38381,4.32623 11.3125,4.34375 1.2647,0.0283 2.56622,-0.17808 3.40625,0.4375 l 0.125,0.21875 0,-0.125 c 0.30848,0.27144 0.52648,0.64691 0.65625,1.25 -2.45418,-0.31411 -1.83946,0.0851 -3.5,1.59375 -1.69109,1.53274 -3.6177,4.16895 -5.1875,6 -0.88441,1.03511 -2.06071,2.10863 -2.34375,3.4375 -0.65002,0.0906 -0.93607,0.19013 -1.46875,0.625 -0.53522,0.43769 -1.25613,1.50701 -2.125,1.25 -0.68537,-0.20357 -1.71362,-1.90781 -2.125,-2.53125 -1.38403,-2.10106 -2.06331,-3.32427 -3.78125,-5.3125 -0.63899,-0.73598 -2.19786,-2.30339 -2.34375,-3.25 -0.10456,-0.67888 0.3647,-1.00155 0.46875,-1.625 0.0933,-0.57085 -0.12214,-0.99828 -0.125,-1.53125 0,-0.54174 0.29042,-0.93621 0.125,-1.5 l -0.875,-1.34375 c -0.65455,-1.25199 -2.1218,-4.44647 -3.65625,-4.71875 -0.23965,-0.0428 -0.40291,-0.0156 -0.5625,0.0312 l -0.0312,0 -0.9375,0.5625 0,1.1875 c -1.18298,0.0735 -1.38374,1.03782 -1.84375,2 -0.99696,2.08521 -2.42353,4.11578 -2.59375,6.46875 l 0.65625,0.1875 0.1875,-1.125 1.8125,3.59375 -0.46875,-0.46875 -0.1875,0 c 0.74079,1.4397 2.06814,1.8601 2.65625,2.90625 l 0.65625,2.15625 1.25,2.25 1.53125,4 c 0.2686,0.67433 1.64859,3.42192 1.53125,3.90625 -0.14705,0.60818 -2.05003,2.06019 -2.59375,2.53125 -2.15137,1.86638 -3.33342,3.31827 -2.71875,6.3125 0.48406,2.37051 2.89474,3.89821 5.1875,4 1.14736,0.0509 2.5171,-0.31965 3.125,-1.34375 -0.87114,0.40941 -1.67939,0.79526 -2.65625,0.875 -0.99074,0.082 -2.10199,-0.19908 -2.9375,-0.71875 -1.8904,-1.17904 -3.13043,-3.68799 -2.0625,-5.875 0.57481,-1.17678 1.76861,-2.13975 2.75,-2.96875 0.50667,-0.42892 2.04158,-1.89083 2.65625,-1.875 0.51941,0.0283 0.96698,0.69097 1.25,1.0625 0.80893,1.0614 2.04469,2.19586 2.0625,3.59375 1.6006,0.38903 2.53201,0.27966 4,-0.46875 0.16964,0.83154 0.63412,2.9087 1.59375,3.125 1.03455,0.23468 2.38365,-1.36807 3.0625,-2 l -0.2188,0.4063 0.625,-0.1875 c -0.76256,2.30662 -1.93298,9.46759 -1.9375,11.90625 l 0,3.125 c 0,0.84058 -0.22532,3.95599 0.1875,4.5 0.20355,0.2686 0.41975,0.24592 0.6875,0.34375 l 0.65625,6.1875 0.1875,5.125 0.21875,2.1875 c 0,0.9045 -0.24403,3.17701 0.53125,3.71875 1.01476,0.70769 2.94291,0.0555 3.71875,1.21875 0.41364,0.61467 0.47867,2.4227 0.59375,3.25 l 0.71875,4.375 c 0.28981,1.39137 0.68701,2.85961 0.40625,4.28125 l 0.6875,1.3125 -0.40625,0.40625 c 0.0849,0.15832 0.031,0.32908 0,0.46875 -0.1273,0.59038 -1.09302,1.01587 -1.59375,1.1875 -2.65296,0.9155 -5.55155,1.35831 -7.1875,3.875 -0.55502,0.85358 -1.68599,3.13946 -0.59375,3.96875 0.26013,0.19791 2.51267,0.59997 2.90625,0.59375 l 1.34375,-0.125 c 2.69057,-0.18377 7.07917,-0.0648 9.5,-0.65625 0.45323,1.73574 1.01805,1.71705 2.65625,1.71875 3.95528,0.0283 7.89237,0.52137 11.53125,-1.25 0.86435,-0.41988 1.80019,-0.56734 2.375,-1.34375 -0.64098,-0.87112 -0.80489,-3.72553 -0.9375,-4.90625 -0.23749,-2.1299 -0.8969,-2.33242 -0.84375,-3.53125 l 0.65625,-3.34375 c 0.36022,-2.07476 0.4665,-3.80547 0.46875,-5.90625 0,-1.39109 0.31837,-2.62673 0,-4 l 2.46875,-0.90625 -0.21875,-7.71875 c 0.0452,-0.59489 0.10916,-2.14277 0.40625,-2.59375 0.30282,-0.46199 1.2641,-0.77635 1.78125,-1 1.79088,-0.77839 3.63671,-1.03232 4.125,-3.28125 0.29856,-1.36876 -0.1299,-3.44617 -0.3125,-4.84375 l -0.46875,-7.3125 0.1875,-2.1875 -0.1875,-2.875 0,-1.78125 -0.34375,-6.1875 c 0.0961,-0.72552 0.65981,-0.88998 0.8125,-1.53125 0.14704,-0.6127 -0.83461,-3.85611 -1.0625,-4.65625 -1.02126,-3.5781 -1.97418,-5.70551 -3.46875,-9.0625 -0.61695,-1.38882 -1.22079,-3.25226 -2.125,-4.4375 -0.98167,-1.28706 -3.83998,-3.11472 -5.3125,-3.9375 l -1.8125,-0.9375 c -0.10184,-0.0735 -0.11116,-0.11963 -0.1875,-0.1875 -0.59177,-0.5276 -0.59261,-0.91088 -1.125,-1.34375 l 0.25,-0.84375 c 1.44396,0.71648 2.08531,0.31611 3.53125,0 1.74,-0.2918 2.98589,-0.37167 4.3125,-1.875 1.11202,-1.26272 0.41152,-1.97625 1.875,-3.25 0.99949,-0.87141 1.91825,-1.61454 2.46875,-2.875 0.52392,-1.19911 0.24818,-2.16028 1,-3.78125 0.66557,-1.43971 2.32492,-1.94 2.90625,-2.9375 0.31185,-0.53496 0.28125,-1.30033 0.28125,-1.90625 0,-3.66462 -0.58572,-7.0872 -1.40625,-10.65625 -0.20921,-0.91355 -0.54283,-2.97512 -1.0625,-3.65625 -0.6455,-0.84935 -1.44923,-0.4905 -2.65625,-1.59375 l -0.875,0.1875 c -0.2375,-0.67887 -0.16573,-0.60737 -0.84375,-0.84375 -0.0764,-1.25621 -0.55632,-3.54409 -2,-1.59375 -0.1753,-0.61241 -0.4328,-1.40141 -0.875,-1.875 -0.91524,-0.98141 -1.5078,-0.21471 -1.59375,0.8125 l -5.53125,-3.0625 -3.5,-2.21875 c -2.04055,-0.89769 -4.48961,-0.92289 -6.65625,-1.3125 l -6.875,-1.40625 -1.96875,0 -2.40625,-0.1875 z m 22.75,46.21875 0,-0.25 -0.1875,0 0.1875,0.25 z m -14.5625,79.15625 0,-0.21875 -0.28125,0 0.28125,0.21875 z m 14.5625,-79.8125 0.1875,0.1875 0,-0.1875 -0.1875,0 z m 0.46875,0 0.1875,0.1875 0,-0.1875 -0.1875,0 z m 12.375,53.0625 0.1875,0.21875 0,-0.21875 -0.1875,0 z m -2.21875,0.65625 0.21875,0.21875 0,-0.21875 -0.21875,0 z m -16.625,13.90625 c 1.41484,0.24316 1.409,1.89562 1.6875,3.125 l 1.84375,9.90625 -2.84375,0.875 c -0.34042,-1.14991 -0.77091,-1.56859 -2,-1.53125 1.19374,-2.98972 1.3125,-9.07343 1.3125,-12.375 z m -1.53125,11.0625 0.21875,0 -0.21875,0.25 0,-0.25 z m -11.28125,10.84375 -1.75,0.1875 1.75,-0.1875 z m 8.84375,0.4375 0.25,0.21875 0,-0.21875 -0.25,0 z"
       id="path5005" />
    <path
       inkscape:connector-curvature="0"
       id="path64458"
       style="fill:#59473b;fill-opacity:1;stroke:none;display:inline"
       d="m 541.97946,468.92944 c -0.19435,1.44156 -0.64057,3.41231 -2.15922,3.95951 l -0.35977,-4.13966 c 1.2271,-0.32391 1.32965,-0.20874 2.51899,0.18015 z m 31.66862,-97.54942 0.17998,0.18017 0,-0.18017 z m 5.93787,-4.13948 0.18014,0.17998 0,-0.17998 z m -14.98855,-3.43586 c 0.35441,0.46424 0.86541,1.00971 0.83667,1.63418 -0.0329,0.72528 -1.83546,2.91394 -2.40207,3.42148 l -0.21238,-3.41958 -0.32393,-1.43981 -0.1836,-3.0598 z m 7.61121,-8.08288 0.17996,0.17998 0,-0.17998 z m -4.8582,-6.83931 -0.53975,-0.53977 z m -0.71973,-0.71992 -0.17998,-0.71991 z m 25.91071,-38.87568 c -0.63157,-1.33918 -0.55951,-1.90423 0.35995,-3.05979 0.1961,0.68941 0.0329,2.45507 -0.35995,3.05979 z m -67.29586,-15.11847 0.17981,0.17998 0,-0.17998 z m 14.10512,-3.56525 -2.58933,-0.77933 c -1.44848,-0.25567 -2.14119,0.97369 -2.88604,1.20771 l -3.23181,0.31491 c -0.6442,0.11087 -2.79441,0.90526 -3.41871,1.20234 0.0607,0.38144 -0.57751,0.37243 -0.85641,0.55432 -0.45349,0.2969 -0.41763,0.59033 -0.40326,1.0653 -0.89416,0.46441 -1.37642,1.43463 -2.02063,2.18693 -1.50062,1.75648 -1.60872,2.2046 -2.49023,4.29244 l -0.61374,1.43983 -0.40463,1.79977 c -0.17479,0.65877 -0.68926,2.13098 -0.68389,2.69967 0.0174,1.85398 1.16422,2.44969 1.02201,3.95968 l -1.34767,4.67959 c -0.56678,2.7932 -0.14724,6.21641 1.01665,8.8189 1.16058,2.59537 2.12317,3.50236 4.29329,5.28604 0.67125,0.55084 2.5119,1.43272 2.57132,2.27493 0.0779,1.08003 -1.80653,1.75127 -2.60179,2.09511 -2.58223,1.11936 -2.93664,0.73965 -4.55973,3.12267 -0.45886,0.67297 -0.79889,0.95914 -0.83857,1.79961 -1.25777,0.7038 -1.55276,2.0771 -2.24547,3.18762 l -0.69826,1.03119 -0.81137,1.53336 -1.44849,2.16701 c -0.98978,1.74764 -1.99742,3.79408 -3.61323,5.03954 l 0.17998,0.71991 c -1.05631,0.0519 -1.23265,0.79182 -1.66449,1.6198 -0.74849,1.43983 -0.44258,1.23646 -0.77725,1.97976 l -2.03154,3.41957 -2.65393,4.49234 -0.7989,1.11763 c -0.40673,0.65166 -1.35495,2.99138 -1.41437,3.74905 -0.0849,1.10687 0.52366,3.22711 0.88344,4.31946 0.95548,2.90856 1.7743,5.00697 3.55728,7.55923 0.75595,1.08177 2.86111,4.08371 3.19404,5.21935 0.12646,0.42855 0.14897,0.99359 0.10221,1.43999 l 0,1.43965 0,4.4996 c -0.0174,2.5036 1.87132,6.44699 2.88969,8.81909 0.65686,1.53163 1.22364,2.43342 1.23247,4.13948 l 0.35996,5.93944 0.73584,16.01817 0.35996,4.85959 0.16283,2.15954 0.17998,3.59973 0.17997,2.3397 0.35979,7.19929 0.17322,1.79978 0,1.61979 0.18707,3.05979 0.17998,1.79978 0,1.6198 0.17998,2.51969 0.17998,2.51968 0.24286,5.38322 c 0.13512,0.6281 0.62429,0.90335 0.78452,1.45767 0.19419,0.68058 -0.35095,1.63625 -0.76287,2.15088 -1.30644,1.63246 -2.23301,1.42909 -3.68339,2.04091 l -1.43947,0.75247 c -0.78989,0.35995 -1.91636,0.48589 -2.29242,1.37314 -0.18726,0.43928 -0.39218,1.47602 -0.39218,1.96 0,0.71819 0.50737,3.02186 0.97698,3.52593 0.36705,0.39218 1.19834,0.66224 1.70762,0.85121 1.63919,0.60662 1.98478,0.83875 3.77866,0.84222 l 1.79926,0 c 3.10933,-0.038 5.18228,-0.79354 8.09725,-1.59279 l 1.97923,-0.50926 c 0.59381,-0.0988 0.77362,-0.0191 1.43948,-0.21949 l 4.67838,-1.43635 c 0.51464,-0.13685 1.52227,-0.50026 1.97923,-0.50927 0.83858,-0.0191 1.64284,0.55968 1.83182,1.38768 0.12473,0.54167 -0.19799,1.3785 0.69808,1.61616 l 1.24877,0.097 c 1.39097,0.27177 2.68822,0.67503 4.13862,0.61909 l 5.21796,-0.69462 1.61946,0 2.87894,-0.51482 c 1.82282,-0.47514 4.12597,-1.90596 5.50257,-3.16407 2.08542,-1.90597 3.66885,-2.26765 3.67422,-5.33818 l 0,-2.33989 -0.17999,-2.87946 c 1.05804,-0.18171 0.84931,-0.71455 0.91582,-1.61997 0.0589,-0.78106 0.2737,-1.54411 0.0935,-2.33781 -0.2302,-1.00781 -0.62429,-0.70744 -0.64957,-2.16164 l 0,-9.89894 -0.34367,-5.5793 0.16109,-2.33971 -0.2051,-9.71896 0,-4.31964 -0.13857,-2.15974 0,-3.0596 -0.19418,-7.91903 0,-7.91918 0.17322,-3.25588 0,-3.94323 -0.1663,-2.69983 0.32029,-1.79978 0.46787,-3.59973 0.82401,-5.21935 c 0.0174,-1.27249 -0.13165,-4.95674 0.36342,-5.93944 0.39772,-0.78831 3.32882,-3.70209 4.10432,-4.49942 l 5.46117,-6.31534 c 1.26852,-1.35008 3.18486,-3.07763 3.69761,-4.84329 0.48588,-1.6721 -0.79353,-3.67715 -1.60682,-5.03953 l -5.03278,-7.55923 c -0.5777,-1.00782 -0.30955,-1.01681 -0.58653,-1.79978 -0.20336,-0.57232 -0.84948,-1.60542 -1.18225,-2.15991 l -0.34904,0.36014 c 0.0469,-0.37624 0.0901,-0.50755 0,-0.8999 -0.21236,-1.11953 -2.04766,-4.08007 -2.88968,-4.85939 l 0.89954,2.15956 -1.01127,-1.7996 -0.66569,-1.61998 -1.23976,-1.97976 -0.54704,-1.07986 c -0.67123,-1.22212 -1.55829,-2.16532 -1.75438,-3.5996 -0.89781,-0.26468 -1.17497,-0.54184 -1.43947,-1.43999 -1.11382,-0.59571 -1.30627,-1.35874 -2.03865,-1.83026 l -1.02027,-0.49871 c -0.66206,-0.34731 -0.67107,-0.47151 -1.43948,-0.37069 -0.52365,-0.81346 -1.93419,-1.35702 -2.87895,-1.25985 l 0.17997,-0.53993 -2.15921,-0.55795 -1.47012,-0.73602 -2.12683,-0.65704 -1.44121,-0.92863 1.75786,0.12125 c 0.67298,-0.15937 0.47688,-0.88706 0.8422,-1.54219 0.42093,-0.75248 0.85815,-0.54184 1.17843,-1.45783 0.3203,-0.0174 0.58843,-0.0174 0.89973,-0.12645 2.02426,-0.69636 0.73046,-2.43325 1.13355,-4.01356 0.18535,-0.73065 0.67123,-1.06895 1.04193,-1.6702 0.35806,-0.5848 0.74313,-1.78349 0.8313,-2.46929 0.19781,-1.52262 -0.42821,-2.25518 -0.50927,-2.93021 l 0,-1.56923 -0.31319,-1.43999 -0.10395,-1.79978 c -0.0953,-2.26055 0.75212,-3.0002 0.79716,-4.85938 0.0469,-1.9834 -0.37433,-1.94217 -0.90509,-3.59974 l -1.03292,-4.06379 c -1.73447,-3.41074 -5.96125,-3.56733 -9.21627,-4.21517 l 0.35996,0 0,-0.17998 c -1.36378,-0.7019 -1.64648,-1.30678 -2.44902,-1.76566 z"
       inkscape:transform-center-x="-10.783874"
       inkscape:transform-center-y="70.095211" />
    <path
       style="opacity:0.80876495;color:#000000;fill:#a76c72;fill-opacity:1;fill-rule:nonzero;stroke:none;stroke-width:1;marker:none;visibility:visible;display:inline;overflow:visible;enable-background:accumulate"
       d="m 837.84811,281.94721 c -0.3898,0.021 -0.6782,0.1748 -0.7804,0.55739 l -2.4524,0 c -1.5822,0.0231 -1.1625,0.38087 -2.9541,0.39014 -1.4932,0.0179 -2.804,0.0924 -4.236,0.55739 0.2518,0.73198 0.4812,0.7145 1.1147,1.11474 -1.3691,0.1409 -3.4349,0.92344 -4.6262,1.61637 -1.119,0.65049 -1.1144,1.4762 0.3345,1.1705 -0.5818,0.81171 -1.1481,1.20463 -1.1148,2.22948 -1.093,0.47997 -2.3753,1.90452 -0.7246,2.67539 1.1246,0.52651 3.283,0.50806 4.6262,0.83605 -0.8837,2.01618 -0.9424,3.76214 -1.1147,5.90816 -0.064,1.23977 -0.2965,1.84825 0,3.17703 0.5169,2.63151 1.4891,3.20743 1.7836,4.23603 l 0.2787,3.73441 c -0.9784,-0.40399 -1.1821,-0.44617 -2.0623,0.16712 -0.1516,-0.86914 -0.3403,-0.82767 -1.1148,-1.17048 -1.0969,-0.52439 -2.0374,-0.68207 -3.1213,0 -1.9769,1.28792 -2.1906,2.9596 -2.2294,5.07209 -0.018,0.82099 -0.026,1.24476 0.3344,2.00654 1.1804,2.47938 3.8976,3.86165 6.5212,4.23603 l 2.3967,0.11145 1.6722,0.55737 c 0.9635,0.28895 2.3149,0.30848 3.0098,1.05901 2.251,2.4314 5.3802,7.98899 1.2262,10.19993 -0.6298,0.3355 -1.8838,0.97759 -2.5639,1.11474 -1.0709,0.21492 -0.8827,-0.2233 -2.2295,0.33443 l 0.1671,0.55737 c -1.3821,-0.33175 -2.5656,0.26503 -3.8459,0.78033 -2.1786,0.8784 -5.3574,2.33382 -7.0786,3.90161 -0.6836,0.62264 -0.5976,0.77255 -1.059,1.39343 -0.8799,1.1784 -0.9986,1.25431 -0.6131,2.8426 l -0.7246,0.72458 c -1.1431,0.18727 -2.0111,1.20741 -2.9541,1.83933 -2.1196,1.41759 -5.0175,4.0327 -6.7442,5.90815 -0.7948,0.86363 -1.2967,1.23986 -1.9508,2.28523 l -0.3344,-1.17048 -1.6164,3.23276 2.8983,3.45572 c -0.1033,-0.38493 -0.2037,-0.86485 -0.056,-1.67212 2.9608,4.16789 5.3148,7.69914 9.0295,11.31466 l 1.7836,1.56065 1.0032,0.66884 c 0.8542,0.60606 2.3212,1.94581 2.564,2.95408 l 0.7803,4.29178 -0.1115,2.39669 c 0,0.55595 0.013,1.12527 -0.1114,1.67212 l -0.6689,2.00655 -1.3377,3.90161 -0.6688,1.33769 c -0.2337,0.60392 -0.4434,2.1306 -0.223,2.73113 l 0.223,-0.33434 c 0.027,0.95244 -0.062,1.02539 -0.7803,1.67213 l -0.3345,2.56391 0,2.06228 -0.2229,-1.50492 0.2229,2.22951 -0.1671,1.11473 c -0.1071,1.00631 0.04,2.44175 0.5016,3.34424 l 0.1672,-0.72459 0,1.28197 0.5016,2.3967 0.4459,1.11474 0,1.50491 c 0.052,1.91238 1.4938,6.21583 2.1738,8.13765 l 2.2852,6.1311 c 0.6171,1.25476 1.0728,1.35018 1.3377,1.89507 l 0.4459,2.00654 1.3934,2.95407 1.6164,2.95408 1.7836,2.95408 1.3934,5.57372 2.1738,11.48189 1.1147,5.57374 0.3344,1.83931 1.1705,3.51146 c 0.2797,1.20268 0.2358,2.50764 0.223,3.73439 l -0.223,2.78687 0,1.61639 c -0.018,1.5974 -1.0045,4.5937 -2.118,5.7409 -0.5966,0.6152 -2.2465,1.3519 -3.0655,1.8394 -0.993,0.595 -1.6197,1.1152 -2.7869,1.3377 l 0,1.2819 4.2918,-0.1671 c -0.095,0.4671 -0.2476,1.2551 -0.4459,1.6721 -0.2817,0.5948 -0.8353,1.1126 -1.2263,1.6721 -0.6522,0.9341 -2.9008,4.4463 -3.1212,5.3508 l 7.1901,-3.0656 4.5704,-2.0622 1.5607,-3.4 -0.3902,-0.3344 0.5574,-0.3902 1.1147,0.9476 0.3902,0 c 0.6223,-1.9236 0.2433,-1.8013 0.2229,-3.5672 l 0,-1.6164 c -0.1017,-1.805 -0.3742,-4.01221 0,-5.79669 l 1.7279,-4.62619 2.8983,-9.64256 0.4459,-2.95407 1.0033,-8.13766 0,-6.2983 c 0,-0.90981 0.3332,-3.60071 0.5574,-4.45899 0.9021,-3.46534 2.9641,-7.87919 2.5639,-11.48188 1.1709,-0.40755 1.7051,-1.32743 2.2295,-2.3967 l 1.059,-2.39671 0.2787,-1.17048 c 0.2465,-0.75428 0.4554,-1.17628 0.6131,-2.00654 l 0.5574,-3.51145 1.6163,-5.01635 0.5017,-2.78687 1.2262,-4.6262 0.4459,-2.56391 c 0.3483,-1.71224 1.2634,-5.14477 1.282,-6.68847 0.034,-2.99484 0.1182,-5.64052 -0.8361,-8.52781 -0.3837,-1.16201 -0.6297,-1.59675 -1.282,-2.61966 -0.3112,-0.48923 -0.7837,-1.00103 -0.6688,-1.61637 0.3613,-1.94947 3.4061,-5.07352 4.9049,-6.29832 l 1.2262,-0.89179 1.1705,-1.28196 2.7311,-2.34096 1.0033,-1.05902 2.0623,-1.89507 4.3475,-4.62619 c 0.1414,0.21145 0.2901,0.45601 0.4459,0.66885 l 0.3901,-2.56391 2.7311,-3.73449 -9.9769,-6.91142 c 0.034,0.11908 0.074,0.20743 0.1114,0.33442 -1.8305,-1.12117 -2.6704,-1.68149 -4.236,-3.17703 -0.8449,-0.80619 -1.2467,-0.79637 -1.2262,-2.00654 0.034,-2.05701 -1.3327,-3.77453 -2.8984,-4.96061 -0.9171,-0.69489 -1.7399,-0.9619 -2.7311,-1.44918 -1.5453,-0.76177 -3.5567,-1.76995 -5.1835,-2.28523 l -2.4525,-0.55737 -1.1147,-0.4459 -0.7246,-0.22295 c -0.4816,-0.19852 -0.6946,-0.47042 -1.282,-0.6131 -0.4188,-0.10345 -0.9824,-0.007 -1.4492,-0.27869 -0.5261,-0.30589 -1.5983,-1.98032 -1.8393,-2.56393 -0.489,-1.18251 -0.5569,-3.90472 -0.3901,-5.18355 l 0.3344,-2.00655 c 2.9716,0 4.7622,-0.27218 7.5803,-1.33769 1.0781,-0.4097 1.0483,-0.7938 1.895,-1.05902 l 2.9541,-0.39015 2.7869,-0.50164 1.8393,-0.55737 c 0.6836,-0.17979 1.1017,-0.0787 1.7836,-0.39017 0.5354,-0.2447 0.9749,-0.61952 1.4492,-0.94752 0.4853,-0.3355 1.0637,-0.53616 1.4491,-1.00328 0.173,-0.2094 0.929,-2.10365 0.9476,-2.3967 0.095,-0.36493 0.018,-0.69587 0,-1.05902 -0.1445,-1.25831 0.012,-2.07796 -0.8918,-3.17701 -0.9876,-1.20071 -3.3744,-2.39091 -4.9049,-1.56065 -0.4557,0.24828 -0.6566,0.59732 -0.9476,1.00328 -0.4298,-0.66726 -0.515,-0.69739 -1.2819,-0.89181 l 1.3377,-4.29177 0.3901,-2.56392 0.2787,-1.67211 -0.3901,-2.06227 0,-1.28197 -1.0033,-3.51145 -1.2262,-1.89506 -0.3344,-1.44918 0.3901,-0.72459 -2.5082,-1.28195 c -0.4908,-0.38168 -1.0931,-1.4613 -2.6753,-1.78358 -0.7356,-0.14984 -1.3805,-0.0871 -2.0623,0.22294 -0.3539,0.15873 -0.9003,0.57209 -1.282,0.50164 -0.4892,-0.091 -1.5778,-2.07246 -2.3967,-0.94755 -0.1373,0.18729 -0.1696,0.33667 -0.2229,0.50165 -1.5321,-1.36945 -5.678,-2.8254 -7.7475,-3.34424 -0.461,-0.11571 -1.3569,-0.42536 -2.0066,-0.39016 z m -15.2721,5.74094 0.223,0.22296 0,-0.22296 -0.223,0 z m 36.7309,2.2295 0.1671,0.16712 0,-0.16712 -0.1671,0 z m -39.8521,48.37996 0.1671,0.16713 0,-0.16713 -0.1671,0 z m -2.6197,3.9016 0.2229,0.16714 0,-0.16714 -0.2229,0 z m 49.8849,3.1213 0.1671,0.22294 0,-0.22294 -0.1671,0 z m -45.7603,2.22948 1.8393,0.8918 c 1.9825,0.70774 2.7643,0.32275 4.6262,-0.16711 l -0.8918,4.84914 0,1.83934 0.9475,2.3967 0.7246,2.45243 c 0.4446,1.69567 1.1089,5.16182 1.0033,6.85569 -0.1374,2.22201 -1.2794,4.56583 -2.341,6.46553 -1.8342,-0.5877 -1.6494,0.50948 -3.5114,0.72458 0.03,-0.30945 0.095,-0.58055 0,-0.89179 -0.2761,-1.02485 -2.2974,-2.4825 -2.6197,-4.06882 l 0,0.16712 -0.3344,0 -0.8918,-1.67212 c -0.3002,-0.42431 -0.5863,-0.56005 -0.8918,-0.89179 l -1.4492,-1.89508 -2.0065,-2.78686 -1.2262,-2.00654 c -0.7855,-1.19162 -2.3677,-3.68936 -2.6197,-5.01637 1.8639,-1.10261 4.7758,-3.07446 6.4655,-4.40323 1.2821,-1.00809 2.1413,-1.50081 3.1771,-2.84262 z m 39.462,1.11476 c 0.8855,1.18609 1.8461,1.91211 2.954,2.84259 1.4378,1.21 2.8711,2.49606 4.459,3.51147 l 2.1738,1.28196 c 0.3057,0.16051 0.693,0.33183 0.7246,0.72457 0.037,0.46337 -0.5489,1.06544 -0.8361,1.39343 l -2.341,2.61966 c -1.684,1.65677 -3.2909,3.41772 -4.7934,5.23929 -1.5228,1.84567 -2.0418,2.85028 -4.0131,4.40326 -0.8209,0.64673 -1.9271,2.1107 -2.7868,2.22948 -1.1544,0.15697 -1.5717,-0.61703 -2.2295,-1.39343 -1.3452,-1.58453 -2.3128,-3.6767 -2.2295,-5.79667 l 0.3344,-2.61965 0.3344,-4.40326 1.9508,-6.13109 0.7246,-3.73441 3.1213,0.39017 2.4525,-0.55737 z m -7.4131,8.36059 0.1671,0.16713 0,-0.16713 -0.1671,0 z m -45.0357,5.90814 0.1671,0.16713 0,-0.16713 -0.1671,0 z m 1.1147,0 0.1671,0.16713 0,-0.16713 -0.1671,0 z m 19.6195,4.6262 0.1672,0.22296 0,-0.22296 -0.1672,0 z m 30.2096,11.70484 0.1672,0.16712 0,-0.16712 -0.1672,0 z m -30.5997,101.72054 0.2229,0.1671 0,-0.1671 -0.2229,0 z"
       id="path64633"
       inkscape:connector-curvature="0" />
    <path
       style="color:#000000;fill:#f3a71e;fill-opacity:1;fill-rule:nonzero;stroke:none;stroke-width:1;marker:none;visibility:visible;display:inline;overflow:visible;enable-background:accumulate"
       d="m 382.70355,283.09998 c -0.89736,0.027 -1.80397,0.1315 -2.49959,0.2717 -0.69363,0.1391 -1.55913,0.3092 -2.11921,0.7607 -1.03322,0.8293 -1.15312,2.3195 -1.57582,2.717 -0.31595,0.298 -0.93768,0.2699 -1.35848,0.3804 -1.21928,0.3161 -2.47959,0.7375 -2.49959,2.2278 -0.0174,0.3452 0.10204,0.7434 0.16293,1.0868 -4.30415,-0.4515 -8.55588,2.3843 -8.96591,6.8467 l 0,1.4672 c -0.13035,1.0351 -0.44928,0.5384 -0.43468,2.8799 l 0.1086,1.9562 c -0.1826,0.4897 -0.7583,0.7231 -1.1954,0.9238 -0.5003,-1.9746 -2.3032,-1.9768 -3.9668,-2.2279 -0.8198,-0.073 -1.9023,-0.1897 -2.7169,0 -0.8978,0.1357 -0.9539,0.4797 -2.0105,0.4347 -0.7424,0.8437 -1.981,1.7541 -2.4453,2.7713 -0.5435,1.1831 0.2445,1.7584 0.2174,2.3366 -0.019,0.4263 -0.6667,1.5234 -0.7608,2.3365 -0.1303,1.1471 0.5905,1.9042 1.1955,2.7713 l 1.2498,2.0649 1.4671,1.8475 c 0.4985,0.8745 0.606,2.4213 0.9781,2.9886 0.2998,0.45873 0.8068,0.69463 1.0868,1.03253 l 0.652,1.0324 c 0.4355,0.5024 0.7868,0.5578 1.0325,1.2498 0.8687,2.4499 -1.7548,1.5215 -2.9343,2.9343 -0.9428,1.1273 0.2673,2.7765 -1.9019,2.6626 -1.23,1.4815 -4.2647,3.2404 -5.9229,4.6188 l -5.4339,4.7275 -4.8905,4.0754 -1.4671,1.4671 c -1.6636,1.5753 -5.1934,4.8498 -4.6732,7.3358 -0.6089,0.253 -0.5216,0.4653 -0.5433,1.0868 -0.7803,0.1669 -1.0855,0.2629 -1.2498,1.0867 -0.943,0.017 -1.1967,1.0454 -1.6302,1.7932 l 0,1.0868 0.7065,1.2498 -0.7064,0 c -0.3523,0.6449 -0.6093,0.7022 -0.8694,1.1411 l -1.1412,2.8256 -0.9237,1.6302 -1.3585,3.0973 -0.8151,1.4128 c -0.2418,0.5293 -0.7536,3.1786 -0.7607,3.8037 -0.017,0.6413 0.341,1.2188 0.4347,1.8476 0.3921,2.6268 1.5395,6.1264 2.7713,8.4768 0.2907,0.5547 1.3415,2.2796 1.7388,2.7169 0.9576,1.0515 1.3667,0.9869 2.3366,2.3366 l 0.9237,-0.3803 -0.2716,2.1735 0,1.2498 -0.2717,2.7169 -0.163,3.0973 0.4347,5.4339 0.163,3.4234 1.5758,7.9334 0.9781,3.2604 1.5758,5.5969 2.6083,6.5206 1.6845,4.6732 2.2279,6.1403 1.3585,1.4671 1.0324,2.717 0.9781,2.1735 0.489,1.2498 1.3585,2.3366 0.4891,2.0105 -0.5434,0.5434 0.7607,0 c 0.6394,4.1591 3.2064,11.1016 5.2709,14.7802 0.5328,0.9485 2.029,3.8357 2.8256,4.3471 -0.5853,2.4063 0.3496,2.6963 0.3804,4.5101 0.017,0.5331 0.019,1.3199 -0.2174,1.7932 -0.3686,0.7372 -1.5177,1.5833 -2.1192,2.3909 l -1.0868,1.7932 -3.043,3.858 c -0.7982,0.8439 -1.5189,1.7673 -1.2497,2.9886 0.078,0.3577 0.2163,0.6181 0.5433,0.8151 0.5726,0.3414 2.2752,0.279 2.9887,0.2717 3.5853,-0.043 6.0858,-1.0855 9.2376,-2.6626 l 1.6302,-0.8694 c 0.9137,-0.4175 1.0776,-0.021 2.33652,-0.6521 1.02418,-0.5239 2.34726,-1.1129 2.93431,-2.1192 0.28725,-0.4914 0.89063,-1.2576 0.10865,-1.4671 l 0.70641,-3.4234 0.65207,-1.4671 0.65206,-2.1736 1.30413,-4.5101 0.92376,-2.7169 0.2717,-1.7932 1.1411,-2.3366 -0.27168,-2.0105 0.4347,-2.1192 -0.38036,-4.0211 c -0.22206,-0.4029 -0.49471,-1.434 -0.5434,-1.9019 l 0,-0.9781 -0.65206,-3.0429 c -0.11656,-0.8745 -0.003,-1.965 -0.76074,-2.554 l 0.16293,1.0868 c -0.70093,-0.9214 -0.83387,-3.0764 -0.38038,-4.1297 0.41368,-0.9648 1.58939,-1.094 1.2498,-1.7389 -0.13035,-0.2493 -0.46976,-0.33 -0.7064,-0.4347 0.89411,-0.9901 1.6266,-0.7608 2.87995,-0.7608 l 5.10785,-0.2173 0.70641,0 c 1.25719,0.2113 1.65728,3.0118 2.28223,3.5864 0.26186,0.242 0.43732,0.2176 0.76074,0.2717 0.18241,1.3064 0.70024,1.4138 1.08678,2.4995 0.21857,0.6107 0.34786,2.5556 0.38036,3.2604 l 0,5.2708 c 0.10262,1.1454 -0.19353,1.1275 0.5434,2.1736 -0.68632,1.1094 0.31995,1.235 0.76075,1.7932 0.2203,0.2784 0.1464,0.5061 0.32602,0.8151 l 0.5434,0.7064 c 0.31438,0.4623 0.41705,1.3202 0.59772,1.9018 l 1.73885,5.0535 0.38036,0.5434 0.7064,2.0106 0.70642,-0.3804 0.54338,2.1735 -0.86942,-0.9237 c 0.47522,1.1238 1.18016,2.048 1.52149,3.2603 0.51661,1.8373 0.63398,2.2363 0.65206,4.1298 0.0174,1.6602 0.12662,0.9888 0.5434,2.3909 0.83256,2.7931 1.79892,4.6569 3.85805,6.7923 1.26606,1.3134 3.03385,3.0745 4.94484,3.3147 1.06398,0.1026 0.61711,-0.3486 2.3909,0 0.0625,-0.746 0.0516,-0.8306 0.70641,-1.2498 l 0,1.0868 1.84752,-1.5759 0.86942,-0.7064 0.32603,-0.9781 -0.16293,0 -0.38037,0.3804 c 0.95358,-1.7272 0.21335,-1.7599 0.10865,-2.9343 l 0.27169,-2.1735 c 0.0417,-1.1292 -0.30881,-1.5086 0,-2.88 l -0.54339,-0.1629 -1.4128,-4.3471 0.16293,-2.6083 0.21735,-0.8151 0.16293,-2.1736 c 0.55278,-3.355 0.98566,-4.2004 1.03244,-7.7705 0.0174,-1.2521 0.22144,-1.0582 0.38036,-1.9562 l 0,-1.6301 0.38038,-3.2604 0,-3.2603 -0.21736,-2.1736 0,-3.4233 1.03245,-6.1403 c 0.12862,-0.6432 0.16467,-1.8415 0.54338,-2.3366 0.40636,-0.5348 1.43264,-0.7941 2.06488,-1.0867 l 0,0.7064 2.33657,-1.7932 0,-0.3804 -1.2498,0 2.44525,-10.8134 0.65206,-3.6407 1.19546,-6.1403 0.21736,-2.5539 0.65206,-4.2928 0.27169,-2.9343 0.5434,-4.2928 c 0.20222,-1.6729 0.3222,-1.2098 0.32602,-3.2603 l 0.16293,-2.7168 0,-4.5102 c 0.0174,-2.3703 0.99644,-2.1788 3.64071,-3.532 l 3.96674,-2.1192 3.26033,-2.1193 3.15165,-1.9562 1.35846,-1.6302 3.58637,-3.369 1.24979,-1.7388 c 0.598,-0.7535 1.82674,-2.4074 2.77129,-2.4996 0.2863,-0.8745 0.3893,-1.256 0.4347,-1.6302 10e-4,-0.012 -0.001,-0.042 0,-0.054 l -3.15165,-14.9975 c -1.09391,-2.5754 -2.69346,-5.4485 -4.23843,-7.3901 -1.08748,-1.3658 -2.32962,-1.8788 -3.09731,-2.8256 -0.35229,-0.4354 -0.34108,-0.8108 -0.59773,-1.3041 -0.289,-0.5565 -1.07547,-1.51 -1.52148,-1.9562 -0.9176,-0.9216 -2.02785,-1.5961 -3.04297,-2.3909 l -2.87997,-2.4453 -1.63017,-1.1954 -4.07541,-4.1298 c -0.51105,-0.6232 -1.62112,-2.2884 -2.28223,-2.5539 -0.28342,-0.1112 -0.72344,-0.1403 -1.03244,-0.1629 0,-1.1816 0.16937,-2.131 -1.24979,-2.4996 -1.73762,-0.4516 -2.73633,0.8149 -4.51013,0.7064 l -1.63016,-0.3261 -1.46715,-0.1086 c -2.09878,-0.3721 -4.19852,-1.2283 -6.14028,-2.0649 l 0,-0.7607 c 0.72249,-0.4841 1.4907,-1.6327 2.17355,-1.9019 0.87951,-0.35053 1.41281,0.4747 2.71695,-0.21733 1.05112,-0.5565 1.59173,-1.5403 2.17355,-1.8475 0.56703,-0.3017 1.94628,-0.056 2.93429,-1.1412 0.32343,-0.3542 0.58921,-0.9267 0.81508,-1.3584 1.09078,-2.0886 1.45385,-3.0599 1.30414,-5.4339 -0.0296,-0.4624 0.0213,-0.8017 -0.16293,-1.2498 -0.61782,-1.6295 -3.12705,-3.8017 -4.72748,-4.4015 -2.94786,-1.1074 -3.82389,0 -6.52066,0.2174 -0.11483,-0.4608 -0.35681,-1.0065 -0.32604,-1.4672 l 0.21736,-0.8694 0.21736,-1.2498 c 0.2763,-1.3658 0.66632,-2.2694 0,-3.6407 -0.32168,-0.7028 -0.63329,-0.9034 -1.08678,-1.4671 -1.24796,-1.5573 -1.01974,-1.8701 -2.98863,-2.9343 l -2.77129,-1.1411 c -0.52739,-0.5401 -0.35445,-1.8671 -0.81508,-3.0973 l -0.76074,0 0.38037,-0.3804 0,-0.1629 c -1.89656,-1.1762 -2.40421,-1.1888 -4.51013,-1.4672 -0.026,-1.1814 -0.0828,-2.664 -1.63016,-2.5539 -0.64912,-1.2557 -2.14508,-1.5116 -3.6407,-1.4672 z m 9.07459,5.6512 0.16293,0 -0.16293,0.163 0,-0.163 z m 9.40061,15.3236 0.16293,0.2174 0,-0.2174 -0.16293,0 z m -61.94625,35.97233 0.1629,0.1629 0,-0.1629 -0.1629,0 z m -17.0081,19.1815 -0.1629,0.5434 0.5434,-0.5434 -0.3804,0 z m 91.77831,3.043 c 0.64302,0.4462 1.89317,1.3551 2.01054,2.1735 0.12346,0.8599 -0.91794,1.7316 -1.4128,2.3367 -0.5401,0.6576 -0.74258,1.179 -1.35848,1.7932 l 0.16293,-1.7932 c 0.11469,-1.6946 -0.0333,-2.7829 0.59772,-4.5101 z m -84.93161,26.1913 0.2174,0.1629 0,-0.1629 -0.2174,0 z m 41.40621,58.7403 c 0.51835,0.6468 0.80892,1.92 0.54338,2.7169 l -0.54338,-2.7169 z m 0.7064,2.8799 0.16294,0 -0.16294,0.163 0,-0.163 z m 34.28781,39.5587 0.21736,0.1629 0,-0.1629 -0.21736,0 z"
       id="path64678"
       inkscape:connector-curvature="0" />
    <path
       style="fill:#555753;stroke:none;display:inline"
       d="m 636.34819,286.71261 c 0.71748,0.043 1.4325,-0.084 2.13497,-0.2112 2.66648,-0.4828 4.18879,-2.6309 3.988,-5.3217 -0.12743,-1.704 -0.27335,-2.9125 -1.02475,-4.4843 -0.76208,-1.5953 -2.83089,-3.9419 -4.24407,-4.9564 l -2.52568,-1.4668 c -1.02474,-0.5724 -2.07723,-1.1191 -3.23864,-1.3668 -0.71728,-0.1541 -2.40402,-0.1233 -3.20248,-0.1109 -1.68632,0.027 -4.93791,0.82 -5.57833,2.5626 -0.35226,0.8456 -0.0452,2.0906 0,2.9896 -1.45613,0 -2.82451,0.2328 -4.24221,0.6874 -1.46436,0.4679 -3.3262,1.3561 -4.48104,2.3661 -3.0251,2.6436 -4.93154,7.914 -4.91243,11.8945 l 0.42708,5.3384 -0.2606,0.2927 0.23285,1.0078 0,1.9027 c -1.3322,0.7367 -2.2437,2.0285 -1.75497,3.6301 0.22423,0.7368 0.74297,1.1875 0.91151,1.922 l 0,3.6302 -0.16031,2.7761 c 0.45256,5.4026 1.91302,7.7153 5.72794,11.5312 l 5.16009,4.3393 c 0.52943,0.4912 1.5328,1.3751 1.72065,2.0672 0.13564,0.4908 -0.035,2.0306 -0.3907,2.415 -0.3309,0.3546 -0.94356,0.4612 -1.50711,1.0484 -0.65973,0.69 -0.62335,1.2856 -1.05043,1.8195 -0.51669,0.647 -2.59187,1.5353 -2.39312,3.8994 0.0391,0.4652 0.16648,0.788 0.11098,1.2813 -0.074,0.6533 -0.51669,1.4713 -0.70454,2.1354 l -0.4057,1.9218 -0.76639,2.3489 -1.11867,3.8437 -2.86521,6.8335 c -0.56992,1.3004 -1.9235,4.8857 -2.85863,5.678 -0.49511,0.4186 -2.47204,1.2492 -3.17863,1.5632 l -7.2587,2.9832 -1.49456,0.647 c -0.88376,0.3545 -1.80183,0.4334 -1.86575,1.576 -0.0575,0.9949 0.46099,1.3346 0.35206,2.9276 -0.12125,1.7831 -1.10366,3.6175 -0.38638,5.7656 0.24991,0.7432 0.83484,1.8964 1.37269,2.4622 0.49326,0.5231 1.24054,0.8542 1.41339,1.4265 l 0,1.4498 c 0.10276,1.3091 0.25835,2.6373 0.80072,3.8439 0.52285,1.1659 1.26171,2.2721 2.22439,3.1219 1.73996,1.5355 2.27597,0.5062 2.28008,3.0707 l 0,15.1615 c 0,3.5408 -0.16853,7.1987 0.61698,10.6772 0.7516,3.3293 2.03037,7.0106 3.60592,10.0365 l 2.70284,4.4843 c 0.14387,0.4401 0.1192,1.0293 0.1192,1.4948 l 0,31.391 c 0,0.4248 -0.0493,1.2404 0.21765,1.5802 0.27972,0.3523 1.43045,0.4375 1.91713,0.5551 l 3.62935,0.9333 c 0.4653,0.1192 1.49867,0.3309 1.85506,0.5913 0.62355,0.4527 0.6961,2.8104 0.70679,3.6003 l 0.42708,8.9689 0.17675,2.7762 0,2.9894 c 0.0452,1.2173 0.11714,1.9839 -0.26472,3.1947 l -1.48388,2.3573 c -0.65953,1.213 -1.62035,3.0196 -3.1254,3.2031 -0.34795,0.9931 -2.14978,1.5632 -2.95893,2.2657 -0.78798,0.6834 -0.96513,1.905 -1.32378,2.8594 -0.1973,0.5188 -0.65973,1.3241 -0.38638,1.8621 0.44187,0.8735 1.96625,0.6813 2.74765,0.5765 l 3.84289,-0.363 2.96529,-0.4034 c 0.92445,0.051 0.78778,1.0527 1.40701,1.4948 0.58061,0.4141 2.3697,0.4611 3.09972,0.4184 l 4.48329,0 c 0.55512,-0.1788 0.97788,-0.4762 1.49457,-0.6984 l 2.13478,-0.7302 2.13498,-1.2321 c 1.04386,-0.5446 1.45367,-0.4292 1.84253,-0.6172 0.44824,-0.2179 1.73132,-1.7745 1.96398,-2.2293 0.4503,-0.8819 0.47393,-2.633 0.46325,-3.6304 l -0.60424,-4.057 -0.18497,-2.5627 0.21148,-1.4948 c -0.0308,-0.632 -0.27109,-0.6022 -0.2754,-2.3489 l 0,-4.2708 0.21354,-3.2031 0,-7.047 c 0.8667,-0.02 3.09334,-0.1685 3.70395,-0.7602 0.39275,-0.378 0.60218,-1.0827 0.77935,-1.5887 0.25402,0.348 0.50168,0.775 0.92218,0.9417 0.95857,0.3759 2.27371,-0.7987 2.67078,-1.5823 0.29473,-0.5852 0.24992,-1.2836 0.24992,-1.9221 l 0,-19.0052 c 0.0206,-3.8394 0.98836,-3.9142 2.70922,-7.0468 1.52642,-2.7826 2.80293,-5.9707 2.84136,-9.1824 l 0,-18.7916 0,-33.3128 c -0.0206,-2.2441 -0.2754,-1.4627 -0.66815,-2.9895 l -0.25198,-1.2449 -0.81778,-1.3176 -1.60103,-5.3385 -2.49567,-7.047 -1.86821,-4.0572 -1.65427,-4.4844 -1.40927,-4.2709 -0.48011,-1.9219 -2.56411,-6.1927 -0.76003,-1.9218 c -0.97583,-2.1249 -2.31852,-1.2323 -3.70827,-2.7974 -1.69947,-1.9157 -1.49231,-3.8566 -1.81682,-6.1715 -0.16442,-1.1638 -0.43777,-2.2316 -0.39071,-3.4166 l 0.84532,-5.7658 0.21354,-5.7655 0.21354,-2.9898 0.42687,-5.3384 c 1.68653,-0.9163 2.96119,-2.1803 3.53542,-4.0573 0.44619,-1.4629 0.48895,-2.4922 -1.1869,-2.9897 l 1.87438,-6.6198 0,-4.9114 z"
       id="path65689"
       inkscape:connector-curvature="0" />
    <path
       style="fill:#b63800;fill-opacity:1;stroke:none;display:inline"
       d="m 947.9193,346.87672 c 1.6893,0.3871 3.4385,1.8972 4.9863,2.6911 2.8361,1.4543 6.5519,1.7378 9.3741,0.1038 0.8517,-0.4948 2.0963,-1.4065 2.7743,-2.1109 1.0073,-1.0473 1.7513,-2.4419 2.2916,-3.7825 0.6404,-1.5859 0.9157,-3.4792 0.9177,-5.1871 0.019,-2.5374 -0.9495,-6.348 -2.4991,-8.3789 -1.5518,-2.0309 -5.7003,-3.9583 -8.2713,-3.9402 l -2.3913,0 c -1.5778,0.192 -0.6563,0.6383 -2.595,0 -0.3291,-0.033 -0.8735,-0.1422 -1.1507,-0.3111 -0.6223,-0.3792 -0.6582,-1.0993 -0.8518,-1.7337 -0.2792,-0.9157 -0.8836,-2.3702 -1.3642,-3.1922 -1.0052,-1.7177 -1.6674,-1.4183 -2.2498,-2.0927 l -0.8178,-1.4982 -1.1668,-1.63 -0.6941,-2.5597 c -0.9593,-3.2416 -1.3362,-5.3524 -4.2703,-7.4272 -5.7879,-4.0919 -13.8898,-4.1057 -20.344,-1.7397 l -1.7951,0.6744 c -0.8796,0.2654 -1.787,0.2813 -2.5929,0.7581 -1.7112,1.0114 -2.0184,2.9206 -1.9905,4.742 0.019,0.3831 0.067,0.9996 -0.1,1.3408 -0.4107,0.8358 -1.4898,0.4288 -2.6885,1.1749 -0.9733,0.6046 -1.6375,1.6978 -2.2001,2.6715 -1.0111,1.7555 -1.4639,4.3649 -1.5795,6.3838 -0.094,1.6718 0.6124,3.9622 0.9793,5.5863 -1.7371,0.2731 -2.2079,1.0133 -3.3907,0.9556 -2.2857,-0.1153 -5.9415,-2.4979 -9.37429,-0.6426 -0.5664,0.3053 -1.057,0.7062 -1.5036,1.169 -1.6876,1.7539 -2.4733,4.9077 -2.4854,7.2958 -0.019,1.7077 0.1383,3.3598 0.706,4.9877 1.51,4.313 5.86209,7.938 10.46319,8.3451 2.1701,0.192 3.7557,-0.8818 5.5848,-1.7615 0.3111,1.5379 0.6204,2.4217 1.3961,3.7903 -4.6729,2.013 -7.7347,6.2542 -10.144,10.5735 -2.6686,4.782 -4.57139,9.6597 -6.49419,14.763 l -3.3907,8.7781 c -0.9335,2.4499 -2.0343,4.8659 -3.263,7.1821 l -1.865,3.1898 c -0.2951,1.4485 2.7066,1.7217 2.3356,3.3936 l -2.3375,4.7881 c -0.4986,1.3466 -0.6023,2.801 -0.9036,4.1893 -0.2452,1.1372 -0.9193,3.0785 -1.3481,4.1896 -0.6682,1.7337 -1.6037,2.3822 -1.9088,3.9902 2.0304,0.6385 2.8003,-0.419 4.1883,-1.7954 l 1.7953,3.7903 c 1.1567,-0.5525 2.0722,-2.1347 2.2437,-3.3913 0.096,-0.7065 -0.1402,-0.5648 0.1497,-1.7958 l 1.5956,0.5985 c 0.5146,-2.2822 0.347,-1.0094 0.1995,-3.1918 -1.1668,-0.7822 -0.2553,-1.9832 0.3988,-2.7931 0.2395,1.1989 1.4242,3.8943 2.2978,4.7262 0.7319,0.6962 1.8867,0.4568 2.114,-0.3591 l -0.5862,-4.9658 c 0.1075,-1.5 0.6763,-4.708 1.36019,-5.9846 l 0.5146,5.3864 0.5386,3.3833 1.1129,2.0031 0.6601,7.7806 1.5497,15.162 0,1.596 0.7778,6.3841 0.5505,3.1062 2.6728,1.0832 7.3797,1.9953 0.3988,5.3863 c -0.4507,-0.081 -1.4439,-0.3613 -1.6474,0.2514 -0.289,0.8698 1.528,0.5784 1.4262,1.7056 -0.048,0.5268 -1.135,0.9675 -1.5558,1.2787 l -3.0935,2.9188 c -0.3151,0.1267 -0.5864,0.066 -0.9134,0 l -0.1995,0.4289 0.1995,0.1996 c -0.8796,0.2035 -1.3005,1.3146 -1.8372,1.995 -1.6334,2.0748 -2.7244,1.973 -3.0635,4.3888 -0.1267,0.9118 -0.1094,1.6021 0.7341,2.1529 1.4838,0.9655 3.4684,0.6604 5.1639,0.6402 2.3694,-0.029 3.2868,-0.6264 5.3851,-1.2529 1.2265,-0.365 2.4314,-0.5763 3.5902,-1.177 l 3.191,-2.033 c 0.9176,-0.4887 3.6879,-1.8673 4.2584,-2.5616 0.5725,-0.6941 0.8039,-1.8773 0.9274,-2.751 l -0.9971,-0.1996 c -0.098,-1.0892 -0.4369,-2.0209 -0.9336,-2.9925 -0.1933,-0.3788 -0.7978,-1.2088 -0.7959,-1.5659 0.019,-0.8079 1.7514,-0.5247 1.2965,-1.3507 -0.2911,-0.5307 -1.0908,-0.347 -1.5614,-0.2754 l 0,-3.5908 5.3851,0.399 6.1828,0 4.5875,-0.1996 0.1993,3.5911 c -0.4646,-0.1075 -1.4878,-0.3392 -1.5896,0.401 -0.1094,0.7918 2.3037,0.6223 1.2905,1.915 l -1.8608,1.3687 -1.7751,1.8315 c -0.369,0.2175 -1.2824,0.2712 -1.7772,0.6443 l -3.2552,4.6125 c -0.5562,0.802 -2.2576,3.3496 -1.1426,4.1616 0.4366,0.3193 1.5675,0.4369 2.1321,0.5585 l 2.5928,0.6125 3.1913,-0.4868 c 1.3043,-0.1516 1.9824,0.2712 3.1913,0.1 2.1041,-0.2993 4.1405,-1.6377 5.9834,-2.5874 0.5824,-0.3013 1.8529,-0.7002 2.2317,-1.0992 0.2975,-0.3113 1.7293,-2.7772 1.9827,-3.2539 0.8635,-1.9792 0.77,-2.9386 0,-4.9876 -0.4865,-1.4483 -1.3821,-2.0329 -1.1228,-2.5976 0.2454,-0.5385 1.6733,-0.3709 1.2626,-1.141 -0.2893,-0.5427 -1.0892,-0.331 -1.5658,-0.2513 -0.3391,-1.9192 -0.086,-1.3247 0,-2.9926 0.021,-0.4986 -0.048,-1.0892 0.3231,-1.4841 0.371,-0.3971 1.1607,-0.4708 1.6753,-0.5607 0.8159,-0.144 3.1693,-0.4887 3.7358,-0.9179 0.5426,-0.4127 1.061,-1.9509 1.2505,-2.6234 l 1.9946,0.399 0.1995,1.5963 c 2.2039,-0.421 2.128,-2.1148 2.196,-3.99 l 0.1786,-1.7955 0.2511,-4.3892 1.7273,-23.541 0.5486,-6.1845 c 0.1974,-1.5044 -0.1152,-1.6658 0.8813,-2.9926 l 0,4.9874 c -0.019,2.3723 -0.5702,3.2761 -0.9971,5.3866 0.4728,0.1306 0.6901,0.2076 1.1968,0.1325 2.7264,-0.4071 2.0522,-4.2472 3.9929,-4.7361 0.9195,-0.2294 3.0178,1.6497 3.4006,2.4439 0.3051,0.6342 0.048,1.3307 0.6461,1.7734 0.4749,0.3472 0.9317,0.1344 1.3345,0.1729 0.5165,0.052 1.1588,0.427 1.5418,0.768 0.688,0.6164 1.2585,2.6395 2.5947,2.1147 0.6065,-0.2374 1.4141,-1.8273 1.3444,-2.4617 -0.1113,-1.0095 -1.4441,-1.0954 -1.8049,-2.4021 l -0.119,-1.3965 c -0.144,-1.4822 -0.3272,-4.808 -0.9695,-5.985 -0.4088,-0.7481 -2.2797,-2.9547 -2.2975,-3.5729 -0.019,-0.4111 0.2572,-0.5689 0.5086,-0.816 l -3.7897,-7.5812 c 0.6682,-0.1632 1.8229,-0.5764 1.855,-1.4143 0.019,-0.5467 -1.1987,-2.7334 -1.5,-3.3736 l -2.9579,-7.3815 -1.2744,-3.3917 -1.2405,-2.7928 -1.6355,-5.3865 c -1.5098,-4.3512 -4.5835,-10.9048 -7.3039,-14.5635 -1.6874,-2.2706 -3.6361,-4.4331 -6.0873,-5.8953 l -4.1307,-1.8713 c -0.3012,-0.2235 -0.2953,-0.3213 -0.4568,-0.6125 1.2946,-0.2593 2.4412,-0.6026 3.7897,-0.2932 z"
       id="path65381"
       inkscape:connector-curvature="0" />
  </g>
</svg>
